# xmcd
# 
# Track frame offsets:
#     150
#     14583
#     31631
#     46924
#     66392
#     83046
#     103362
#     118394
#     137700
#     155114
#     174712
#     193821
# 
# Disc length: 2798
# 
# Revision: 2
# Processed by: cddbd v1.5.2PL0 Copyright (c) Steve Scherf et al.
# Submitted via: fre:ac v1.0.31
# 
DISCID=af0aec0c
DTITLE=John Mayall - Find A Way To Care
DYEAR=2015
DGENRE=Blues
TTITLE0=Mother In Law Blues
TTITLE1=The River's Invitation
TTITLE2=Ain't No Guarantees
TTITLE3=I Feel So Bad
TTITLE4=Find A Way To Care
TTITLE5=Long Distance Call
TTITLE6=I Want All My Money Back
TTITLE7=Ropes And Chains
TTITLE8=Long Summer Days
TTITLE9=Drifting Blues
TTITLE10=War We Wage
TTITLE11=Crazy Lady
EXTD=
EXTT0=
EXTT1=
EXTT2=
EXTT3=
EXTT4=
EXTT5=
EXTT6=
EXTT7=
EXTT8=
EXTT9=
EXTT10=
EXTT11=
PLAYORDER=
